<svg width="1656" height="827" viewBox="0 0 1656 827" fill="none" xmlns="http://www.w3.org/2000/svg">
<path opacity="0.57" d="M-672.529 0.356858C-593.931 88.397 -531.433 190.786 -461.076 272.978C-373.515 375.268 -268.118 452.109 -150.864 506.386C-85.691 536.555 -15.4336 559.776 57.3607 566.183C136.794 573.328 214.267 561.09 285.801 548.699C365.396 534.913 439.878 520.254 510.038 518.482C582.967 516.64 664.429 516.22 719.674 546.51C813.082 597.724 840.971 684.468 889.312 761.343C932.414 829.887 989.188 900.311 1054.87 958.597C1058.29 961.632 1061.79 964.549 1065.27 967.474C1137.09 1027.65 1233.37 1050.34 1327.59 1083.16C1469.31 1132.53 1612.69 1180.91 1655.02 1213" stroke="#FF3219" stroke-width="0.25" stroke-miterlimit="10"/>
</svg>
